<?xml version="1.0" encoding="UTF-8"?>
<svg xmlns="http://www.w3.org/2000/svg" xmlns:xlink="http://www.w3.org/1999/xlink" width="40px" height="46px" viewBox="0 0 40 45" version="1.1">
<g id="surface1">
<path style=" stroke:none;fill-rule:nonzero;fill:rgb(0%,0%,0%);fill-opacity:1;" d="M 12.855469 12.65625 L 12.855469 16.875 L 27.144531 16.875 L 27.144531 12.65625 C 27.144531 8.773438 23.945312 5.625 20 5.625 C 16.054688 5.625 12.855469 8.773438 12.855469 12.65625 Z M 7.144531 16.875 L 7.144531 12.65625 C 7.144531 5.667969 12.902344 0 20 0 C 27.097656 0 32.855469 5.667969 32.855469 12.65625 L 32.855469 16.875 L 34.285156 16.875 C 37.4375 16.875 40 19.398438 40 22.5 L 40 39.375 C 40 42.476562 37.4375 45 34.285156 45 L 5.714844 45 C 2.5625 45 0 42.476562 0 39.375 L 0 22.5 C 0 19.398438 2.5625 16.875 5.714844 16.875 Z M 7.144531 16.875 "/>
</g>
</svg>
