<?xml version="1.0" encoding="UTF-8"?>
<svg xmlns="http://www.w3.org/2000/svg" xmlns:xlink="http://www.w3.org/1999/xlink" width="40px" height="46px" viewBox="0 0 40 45" version="1.1">
<g id="surface1">
<path style=" stroke:none;fill-rule:nonzero;fill:rgb(0%,0%,0%);fill-opacity:1;" d="M 15.714844 0 C 14.132812 0 12.855469 1.257812 12.855469 2.8125 C 12.855469 4.367188 14.132812 5.625 15.714844 5.625 L 17.144531 5.625 L 17.144531 8.648438 C 8.242188 10 1.429688 17.578125 1.429688 26.71875 C 1.429688 36.816406 9.742188 45 20 45 C 30.257812 45 38.570312 36.816406 38.570312 26.71875 C 38.570312 23.046875 37.472656 19.625 35.582031 16.769531 L 37.730469 14.652344 C 38.847656 13.554688 38.847656 11.769531 37.730469 10.671875 C 36.617188 9.570312 34.804688 9.570312 33.6875 10.671875 L 31.757812 12.570312 C 29.25 10.546875 26.207031 9.15625 22.855469 8.648438 L 22.855469 5.625 L 24.285156 5.625 C 25.867188 5.625 27.144531 4.367188 27.144531 2.8125 C 27.144531 1.257812 25.867188 0 24.285156 0 Z M 22.144531 16.875 L 22.144531 28.125 C 22.144531 29.292969 21.1875 30.234375 20 30.234375 C 18.8125 30.234375 17.855469 29.292969 17.855469 28.125 L 17.855469 16.875 C 17.855469 15.707031 18.8125 14.765625 20 14.765625 C 21.1875 14.765625 22.144531 15.707031 22.144531 16.875 Z M 22.144531 16.875 "/>
</g>
</svg>
